<svg id="Layer_1" data-name="Layer 1" xmlns="http://www.w3.org/2000/svg" viewBox="0 0 858 232"><defs><style>.cls-1{fill:#fff;}</style></defs><path class="cls-1" d="M191.38,67.67C179,37.85,154.57,19.12,126.32,12.12A92.05,92.05,0,0,0,82.09,190.83c16.67,4.12,34.09,1.79,48.11-2.07A127.7,127.7,0,0,0,160.84,176a13.25,13.25,0,0,0,25.54,6.52C203.45,136.09,203.68,97.28,191.38,67.67ZM161.51,173.4c.11-.29.22-.58.32-.88l.88,1.32Zm5.52-17-.18-.28a13.25,13.25,0,0,0-18.37-3.67,52,52,0,0,1-5,2.87,108.45,108.45,0,0,1-20.34,7.85c-11.74,3.23-24.16,4.5-34.71,1.89A65.56,65.56,0,0,1,120,37.84c20.75,5.14,38,18.54,47,40C174.67,96.51,176.59,122.56,167,156.45Z"/><circle class="cls-1" cx="106.06" cy="101.21" r="29.4"/><path class="cls-1" d="M305.91,26.52a65,65,0,0,1,26.89,5.73A74.08,74.08,0,0,1,370.7,70.3a67.46,67.46,0,0,1,5.73,27.63v62a9.11,9.11,0,1,1-18.22,0V142a91.66,91.66,0,0,1-23.36,18.66,58.56,58.56,0,0,1-29.53,7.79,71,71,0,0,1-49.95-20,68.52,68.52,0,0,1-15.28-22.33,70.46,70.46,0,0,1-5.58-28.21,69.76,69.76,0,0,1,20.42-49.81,73.25,73.25,0,0,1,22.62-15.28A77.59,77.59,0,0,1,305.91,26.52ZM252.72,97.93a50.9,50.9,0,0,0,4.12,20.42,53.1,53.1,0,0,0,28.06,28.06,52.58,52.58,0,0,0,40.4.15,53.12,53.12,0,0,0,16.61-11,53.76,53.76,0,0,0,11.46-16.6,58.66,58.66,0,0,0,4.84-21,52.14,52.14,0,0,0-4.11-20.57,52.31,52.31,0,0,0-28.21-28.21A52.15,52.15,0,0,0,305.32,45a51.07,51.07,0,0,0-20.42,4.12,52.7,52.7,0,0,0-28.06,28.21A52,52,0,0,0,252.72,97.93Z"/><path class="cls-1" d="M367.32,172a12,12,0,0,1-12.05-12V149.26a97.91,97.91,0,0,1-19,14,61.83,61.83,0,0,1-31,8.17,73.89,73.89,0,0,1-52-20.81,71.7,71.7,0,0,1-15.93-23.28,73.5,73.5,0,0,1-5.83-29.37A72.73,72.73,0,0,1,252.85,46a76.32,76.32,0,0,1,23.52-15.9,81,81,0,0,1,29.43-6.56h.11a68.09,68.09,0,0,1,28.09,6,77,77,0,0,1,39.39,39.54,70.68,70.68,0,0,1,6,28.82v62a12,12,0,0,1-12.06,12Zm-6.16-37.7v25.65a6.17,6.17,0,1,0,12.33,0v-62A64.69,64.69,0,0,0,368,71.5a71.05,71.05,0,0,0-36.42-36.56A62.28,62.28,0,0,0,306,29.46a75,75,0,0,0-27.23,6.07A70.66,70.66,0,0,0,257,50.2,69,69,0,0,0,242.79,125a66,66,0,0,0,14.63,21.39,68.07,68.07,0,0,0,47.9,19.15,56,56,0,0,0,28.08-7.4A89.76,89.76,0,0,0,356,140.05Zm-55.84,19.19a54.16,54.16,0,0,1-21.59-4.36,56.09,56.09,0,0,1-29.6-29.6,54.28,54.28,0,0,1-4.35-21.58,55.14,55.14,0,0,1,4.35-21.72,55.85,55.85,0,0,1,11.94-17.83,56.42,56.42,0,0,1,17.66-11.93,54.27,54.27,0,0,1,21.59-4.36A55.21,55.21,0,0,1,327,46.44a55.28,55.28,0,0,1,29.77,29.77,55.21,55.21,0,0,1,4.35,21.72v.15a61.49,61.49,0,0,1-5.1,22,55.87,55.87,0,0,1-29.6,29.14A54,54,0,0,1,305.32,153.47Zm0-105.49a48.41,48.41,0,0,0-19.26,3.87,50.72,50.72,0,0,0-15.83,10.69,50,50,0,0,0-10.68,16,49.26,49.26,0,0,0-3.88,19.42,48.25,48.25,0,0,0,3.87,19.25,50.17,50.17,0,0,0,26.52,26.53,49.65,49.65,0,0,0,38.1.14,50.4,50.4,0,0,0,15.69-10.41,51,51,0,0,0,10.83-15.7,55.77,55.77,0,0,0,4.59-19.89,49.33,49.33,0,0,0-3.88-19.34,49.34,49.34,0,0,0-26.65-26.65A49.33,49.33,0,0,0,305.32,48Z"/><path class="cls-1" d="M462.24,26.52a65,65,0,0,1,26.88,5.73A74.15,74.15,0,0,1,527,70.3a67.46,67.46,0,0,1,5.73,27.63v62a9.11,9.11,0,1,1-18.22,0V142a91.66,91.66,0,0,1-23.36,18.66,58.56,58.56,0,0,1-29.53,7.79,71,71,0,0,1-50-20,68.67,68.67,0,0,1-15.28-22.33,70.46,70.46,0,0,1-5.58-28.21,69.87,69.87,0,0,1,20.42-49.81,73.29,73.29,0,0,1,22.63-15.28A77.55,77.55,0,0,1,462.24,26.52ZM409.05,97.93a51.07,51.07,0,0,0,4.11,20.42,53.16,53.16,0,0,0,28.07,28.06,52.58,52.58,0,0,0,40.4.15,53,53,0,0,0,28.06-27.62,58.45,58.45,0,0,0,4.85-21,52.14,52.14,0,0,0-4.11-20.57,52.4,52.4,0,0,0-28.21-28.21A52.22,52.22,0,0,0,461.65,45a51.07,51.07,0,0,0-20.42,4.12,52.76,52.76,0,0,0-28.07,28.21A52.14,52.14,0,0,0,409.05,97.93Z"/><path class="cls-1" d="M523.65,172a12,12,0,0,1-12-12V149.26a98.21,98.21,0,0,1-19,14,61.86,61.86,0,0,1-31,8.17,73.89,73.89,0,0,1-52-20.81,71.73,71.73,0,0,1-15.94-23.28,73.67,73.67,0,0,1-5.82-29.37A72.78,72.78,0,0,1,409.17,46a76.48,76.48,0,0,1,23.53-15.9,80.88,80.88,0,0,1,29.42-6.56h.12a68.16,68.16,0,0,1,28.09,6,77.08,77.08,0,0,1,39.39,39.54,70.68,70.68,0,0,1,6,28.82v62a12,12,0,0,1-12.05,12Zm-6.17-37.7v25.65a6.17,6.17,0,1,0,12.34,0v-62a64.85,64.85,0,0,0-5.48-26.43,71.15,71.15,0,0,0-36.42-36.56,62.32,62.32,0,0,0-25.63-5.48,75,75,0,0,0-27.23,6.07A70.66,70.66,0,0,0,413.33,50.2,69,69,0,0,0,399.12,125a65.93,65.93,0,0,0,14.62,21.39,68.11,68.11,0,0,0,47.91,19.15,56,56,0,0,0,28.07-7.4,89.41,89.41,0,0,0,22.62-18.06Zm-55.83,19.19a54.16,54.16,0,0,1-21.59-4.36,56,56,0,0,1-29.6-29.6,54.11,54.11,0,0,1-4.35-21.58,55.31,55.31,0,0,1,4.34-21.72,55.72,55.72,0,0,1,29.61-29.76,54.23,54.23,0,0,1,21.59-4.36,55.25,55.25,0,0,1,21.72,4.35,55.37,55.37,0,0,1,29.77,29.77,55.38,55.38,0,0,1,4.34,21.72v.15a61.7,61.7,0,0,1-5.1,22,56.73,56.73,0,0,1-12.09,17.51,56.09,56.09,0,0,1-17.52,11.63A53.94,53.94,0,0,1,461.65,153.47Zm0-105.49a48.41,48.41,0,0,0-19.26,3.87,50.61,50.61,0,0,0-15.83,10.69,50,50,0,0,0-10.69,16A49.44,49.44,0,0,0,412,97.93a48.26,48.26,0,0,0,3.88,19.25,50.17,50.17,0,0,0,26.52,26.53,49.65,49.65,0,0,0,38.1.14,50.24,50.24,0,0,0,15.68-10.41A50.84,50.84,0,0,0,507,117.74a55.77,55.77,0,0,0,4.6-19.89,49.51,49.51,0,0,0-3.88-19.34,49.42,49.42,0,0,0-26.65-26.65A49.37,49.37,0,0,0,461.65,48Z"/><path class="cls-1" d="M685.27,212.82a9.11,9.11,0,1,1-18.22,0V145.24a71.09,71.09,0,0,1-23.22,17.19,71.36,71.36,0,0,1-57,.73,70.7,70.7,0,0,1-37.62-37.61,69,69,0,0,1-5.58-27.62V35a9.11,9.11,0,1,1,18.22,0V97.93A51.07,51.07,0,0,0,566,118.35,53.16,53.16,0,0,0,594,146.41a52.58,52.58,0,0,0,40.4.15,53.84,53.84,0,0,0,16.46-10.73,52,52,0,0,0,11.31-16A54.34,54.34,0,0,0,667.05,100V35a9.11,9.11,0,1,1,18.22,0V212.82Z"/><path class="cls-1" d="M676.16,224.87a12,12,0,0,1-12.06-12.05V152.41a74.76,74.76,0,0,1-19,12.68,74.19,74.19,0,0,1-59.42.77,73.63,73.63,0,0,1-39.15-39.15,72.18,72.18,0,0,1-5.82-28.78V35a12.05,12.05,0,1,1,24.1,0V97.93a48.26,48.26,0,0,0,3.88,19.25,50.17,50.17,0,0,0,26.52,26.53,49.65,49.65,0,0,0,38.1.14,51.11,51.11,0,0,0,15.56-10.14,49.45,49.45,0,0,0,10.68-15.12A51.76,51.76,0,0,0,664.1,99.9V35a12.06,12.06,0,1,1,24.11,0V212.82a12,12,0,0,1-12.05,12.05ZM670,137.51v75.31a6.17,6.17,0,1,0,12.33,0V35A6.17,6.17,0,1,0,670,35v65.11a57.39,57.39,0,0,1-5.11,20.9,55.52,55.52,0,0,1-12,16.91,56.88,56.88,0,0,1-17.35,11.31,55.42,55.42,0,0,1-42.71-.16,56.09,56.09,0,0,1-29.6-29.6,54.11,54.11,0,0,1-4.35-21.58V35a6.17,6.17,0,1,0-12.34,0V97.93a66.16,66.16,0,0,0,5.35,26.45A67.71,67.71,0,0,0,588,160.46a68.4,68.4,0,0,0,54.6-.7,68.55,68.55,0,0,0,22.26-16.48Z"/><path class="cls-1" d="M772.53,26.52a65,65,0,0,1,26.89,5.73A74.15,74.15,0,0,1,837.33,70.3a69.18,69.18,0,0,1,.14,54.81,74,74,0,0,1-15.13,22.48,70.41,70.41,0,0,1-22.48,15.28A69.67,69.67,0,0,1,772,168.45a71,71,0,0,1-50-20,68.67,68.67,0,0,1-15.28-22.33,70.46,70.46,0,0,1-5.58-28.21,69.76,69.76,0,0,1,20.42-49.81,73.29,73.29,0,0,1,22.63-15.28A77.54,77.54,0,0,1,772.53,26.52ZM719.35,97.93a51.07,51.07,0,0,0,4.11,20.42,53.1,53.1,0,0,0,28.06,28.06A51,51,0,0,0,772,150.52a52,52,0,0,0,20.57-4.11,52.72,52.72,0,0,0,28.2-28.06,50.9,50.9,0,0,0,4.12-20.42,52,52,0,0,0-4.12-20.57A52.75,52.75,0,0,0,772,45a51.16,51.16,0,0,0-20.43,4.12,53.25,53.25,0,0,0-16.75,11.31,52.69,52.69,0,0,0-11.31,16.9A52.14,52.14,0,0,0,719.35,97.93Z"/><path class="cls-1" d="M772,171.39a73.93,73.93,0,0,1-52-20.81A71.7,71.7,0,0,1,704,127.3a73.5,73.5,0,0,1-5.82-29.37A72.78,72.78,0,0,1,719.47,46,76.36,76.36,0,0,1,743,30.14a80.88,80.88,0,0,1,29.42-6.56h.11a68.09,68.09,0,0,1,28.09,6A77,77,0,0,1,840,69.11a72.14,72.14,0,0,1,.15,57.17,77.17,77.17,0,0,1-15.73,23.37A73,73,0,0,1,772,171.39Zm.64-141.93a75,75,0,0,0-27.23,6.07A70.66,70.66,0,0,0,723.63,50.2,69,69,0,0,0,709.41,125,66.11,66.11,0,0,0,724,146.36,68.11,68.11,0,0,0,772,165.51a67.22,67.22,0,0,0,48.29-20,71.2,71.2,0,0,0,14.54-21.59,66.33,66.33,0,0,0-.14-52.43,71.15,71.15,0,0,0-36.42-36.56A62.36,62.36,0,0,0,772.59,29.46Zm-.64,124a54.13,54.13,0,0,1-21.59-4.36,56,56,0,0,1-29.6-29.6,54.11,54.11,0,0,1-4.36-21.58,55.32,55.32,0,0,1,4.35-21.72,55.63,55.63,0,0,1,29.61-29.76A54.23,54.23,0,0,1,772,42.09a55.2,55.2,0,0,1,21.71,4.35,55.28,55.28,0,0,1,29.77,29.77,55.21,55.21,0,0,1,4.35,21.72,54.18,54.18,0,0,1-4.35,21.58,56.37,56.37,0,0,1-11.94,17.67A55.93,55.93,0,0,1,772,153.47ZM772,48a48.37,48.37,0,0,0-19.26,3.87,50.49,50.49,0,0,0-15.83,10.69,50,50,0,0,0-14.57,35.39,48.25,48.25,0,0,0,3.87,19.25,50.14,50.14,0,0,0,26.53,26.53A48.3,48.3,0,0,0,772,147.58a49.25,49.25,0,0,0,19.41-3.88A49.73,49.73,0,0,0,818,117.18a48.33,48.33,0,0,0,3.88-19.25A49.34,49.34,0,0,0,818,78.51a49.34,49.34,0,0,0-26.65-26.65A49.32,49.32,0,0,0,772,48Z"/></svg>